<svg version="1.1" id="Layer_1" xmlns="http://www.w3.org/2000/svg" xmlns:xlink="http://www.w3.org/1999/xlink" x="0px" y="0px"
	 width="100%" viewBox="0 0 912 608" enable-background="new 0 0 912 608" xml:space="preserve">
<path fill="#000000" opacity="1.000000" stroke="none" 
	d="
M538.972595,390.058411 
	C560.509705,353.073792 581.851074,316.398224 603.182129,279.716705 
	C629.953613,233.679794 656.743774,187.653717 683.436584,141.571228 
	C685.820435,137.455719 689.089661,133.728424 690.205200,128.251953 
	C685.743713,126.604034 681.209351,127.115349 676.946411,127.515274 
	C671.045959,128.068848 667.612183,125.942039 664.457031,120.937546 
	C659.411255,112.934380 653.359558,105.567253 647.780884,97.896500 
	C646.844238,96.608582 645.297180,95.617348 645.403992,93.323059 
	C683.205627,93.323059 720.975586,93.323059 759.281128,93.323059 
	C757.515930,98.449829 754.580017,102.276886 752.113098,106.286964 
	C724.124390,151.784485 696.569153,197.543915 669.777954,243.754196 
	C643.071106,289.818848 615.275024,335.209320 586.704407,380.133179 
	C586.347107,380.694977 585.880432,381.197144 585.585754,381.787506 
	C574.041809,404.919434 552.364075,414.116669 529.921814,422.232452 
	C526.959961,423.303528 523.884460,424.063141 520.849182,424.923370 
	C520.599365,424.994202 520.253906,424.727753 519.139282,424.321472 
	C525.733398,412.916504 532.252808,401.640656 538.972595,390.058411 
z"/>
<path fill="#000000" opacity="1.000000" stroke="none" 
	d="
M245.773224,148.556213 
	C238.823486,161.898834 233.404419,175.464523 228.834000,191.113419 
	C209.289093,157.951126 190.546448,126.150063 171.803864,94.349106 
	C174.141861,92.553543 176.203033,93.025612 178.129410,93.024704 
	C295.445068,92.969276 412.760742,92.951424 530.076416,92.882103 
	C538.090454,92.877365 544.882751,96.515503 551.744690,99.803185 
	C564.719360,106.019585 576.507935,114.105888 587.362122,123.546738 
	C588.218750,124.291809 589.237732,124.980392 589.082703,127.274277 
	C472.523956,127.274277 355.910736,127.274277 238.909683,127.274277 
	C239.998306,135.366745 244.993774,141.113907 245.773224,148.556213 
z"/>
<path fill="#000000" opacity="1.000000" stroke="none" 
	d="
M368.828552,424.077576 
	C342.484772,379.679230 316.309174,335.604340 290.136108,291.527924 
	C289.626465,290.669678 289.273682,289.684540 288.634796,288.941772 
	C278.041260,276.625519 281.679016,262.074463 282.358398,248.072296 
	C282.687225,241.295593 283.886810,234.562469 284.647583,227.804581 
	C284.869843,225.829880 285.303925,223.954544 286.644684,221.688202 
	C345.874390,317.966217 404.900574,413.913330 464.153259,510.228699 
	C468.110748,506.935669 468.574066,503.110229 470.112732,499.921295 
	C471.054230,497.969910 471.940491,496.842621 474.385864,496.591675 
	C488.568329,495.136322 502.724304,493.423706 516.892822,491.829987 
	C517.683472,491.741058 518.506104,491.936127 520.504639,492.091644 
	C502.191040,523.848145 484.227753,554.997131 465.598572,587.300842 
	C433.027222,532.375549 401.012115,478.388245 368.828552,424.077576 
z"/>
<path fill="#000000" opacity="1.000000" stroke="none" 
	d="
M461.371094,479.696899 
	C454.561493,468.504272 447.951263,457.635376 440.987549,446.185211 
	C449.352753,445.634277 456.608948,445.116058 463.870270,444.684845 
	C505.769958,442.196320 545.262085,431.948792 580.130493,407.634430 
	C611.771545,385.570587 633.892700,355.956787 647.828796,320.099487 
	C652.050842,309.236481 655.139648,298.050446 658.003845,286.761658 
	C659.994141,278.917206 665.439331,272.681244 669.395325,265.769531 
	C677.247681,252.050171 685.425415,238.517014 693.473633,224.909790 
	C694.384705,223.369415 694.992798,221.578491 696.671387,220.745422 
	C697.871582,220.955994 698.016541,221.814346 698.032715,222.634232 
	C698.269043,234.603607 700.200195,246.535492 700.077881,258.444916 
	C699.731995,292.117493 692.714233,324.393799 677.156128,354.514038 
	C659.099426,389.471405 633.399902,417.867340 602.135315,441.431122 
	C576.248352,460.941803 547.620544,474.394257 515.720459,480.799225 
	C499.796265,483.996521 483.754303,484.614594 467.599701,484.398529 
	C464.270996,484.354004 462.957062,482.329773 461.371094,479.696899 
z"/>
<path fill="#000000" opacity="1.000000" stroke="none" 
	d="
M548.201538,86.905113 
	C528.023743,77.794167 507.430908,71.778770 485.600403,70.226509 
	C463.473450,68.653175 441.414459,68.466270 419.488220,72.378609 
	C416.566772,72.899895 413.506653,73.563103 410.929840,74.943092 
	C397.317322,82.233162 382.571747,80.908104 368.003235,80.941780 
	C352.376099,80.977898 336.748657,80.887100 321.121368,80.870628 
	C320.291138,80.869751 319.454437,81.063690 318.767517,79.776260 
	C322.718903,75.917488 327.551727,73.092880 332.202881,70.061745 
	C354.789124,55.342335 378.686157,43.503757 405.084686,37.246761 
	C429.504425,31.458790 454.335663,29.459888 479.298584,30.810528 
	C531.644165,33.642731 578.123596,51.843887 618.010376,86.050575 
	C636.464050,101.876350 650.903259,121.193901 664.220154,141.394989 
	C666.919189,145.489365 666.714783,148.824066 664.117493,153.144104 
	C657.445068,164.241882 651.445801,175.744446 644.601562,188.127228 
	C627.760559,139.122742 592.069336,109.316780 548.201538,86.905113 
z"/>
<path fill="#000000" opacity="1.000000" stroke="none" 
	d="
M315.889038,433.135864 
	C273.615997,398.369537 246.785400,354.645264 235.521683,301.341766 
	C231.114243,280.484406 230.425217,259.403107 231.886765,238.349380 
	C233.641785,213.068420 240.522537,189.026901 253.037766,166.767456 
	C257.275452,159.230347 261.339355,151.589325 265.252655,143.879044 
	C266.801605,140.827179 268.744293,139.532013 272.254486,139.578018 
	C285.711609,139.754379 299.172424,139.649399 312.228943,139.649399 
	C313.385986,141.281372 312.729797,142.100571 312.098267,142.864349 
	C289.758331,169.882996 276.462128,201.023972 272.594849,235.632477 
	C266.583618,289.427399 281.504913,337.542603 314.922394,380.031311 
	C322.670227,389.882294 331.277771,398.878540 340.664398,407.160950 
	C341.642395,408.023895 342.464355,409.139984 343.125244,410.274597 
	C353.594482,428.247314 364.026489,446.241638 374.461121,464.234436 
	C374.864349,464.929688 375.420044,465.627411 374.607941,466.882904 
	C353.501099,458.555847 333.917969,447.577515 315.889038,433.135864 
z"/>
</svg>